<mxfile host="app.diagrams.net" modified="2022-11-27T15:34:21.636Z" agent="5.0 (Windows)" etag="jF-KyhdpkkdsHaDVgEbS" version="20.6.0" type="github">
  <diagram id="jsZ6BC4Juv4_7gfquDKx" name="Page-1">
    <mxGraphModel dx="2714" dy="2180" grid="1" gridSize="10" guides="1" tooltips="1" connect="1" arrows="1" fold="1" page="1" pageScale="1" pageWidth="827" pageHeight="1169" math="0" shadow="0">
      <root>
        <mxCell id="0" />
        <mxCell id="1" parent="0" />
        <mxCell id="KmaNYub6ngAb1CBFJfRz-1" value="Projet PROFLAN" style="rounded=0;whiteSpace=wrap;html=1;" parent="1" vertex="1">
          <mxGeometry x="250" y="-30" width="120" height="60" as="geometry" />
        </mxCell>
        <mxCell id="KmaNYub6ngAb1CBFJfRz-6" value="" style="edgeStyle=orthogonalEdgeStyle;rounded=0;orthogonalLoop=1;jettySize=auto;html=1;" parent="1" source="KmaNYub6ngAb1CBFJfRz-2" target="KmaNYub6ngAb1CBFJfRz-3" edge="1">
          <mxGeometry relative="1" as="geometry" />
        </mxCell>
        <mxCell id="KmaNYub6ngAb1CBFJfRz-2" value="Hébergement serveurs" style="rounded=0;whiteSpace=wrap;html=1;" parent="1" vertex="1">
          <mxGeometry x="-80" y="280" width="120" height="60" as="geometry" />
        </mxCell>
        <mxCell id="KmaNYub6ngAb1CBFJfRz-5" value="" style="edgeStyle=orthogonalEdgeStyle;rounded=0;orthogonalLoop=1;jettySize=auto;html=1;" parent="1" source="KmaNYub6ngAb1CBFJfRz-3" target="KmaNYub6ngAb1CBFJfRz-4" edge="1">
          <mxGeometry relative="1" as="geometry" />
        </mxCell>
        <mxCell id="KmaNYub6ngAb1CBFJfRz-3" value="Choix d&#39;hébergeur" style="rounded=0;whiteSpace=wrap;html=1;" parent="1" vertex="1">
          <mxGeometry x="-10" y="390" width="120" height="60" as="geometry" />
        </mxCell>
        <mxCell id="KmaNYub6ngAb1CBFJfRz-4" value="Comparaison des prix hébergements" style="rounded=0;whiteSpace=wrap;html=1;" parent="1" vertex="1">
          <mxGeometry x="-10" y="530" width="120" height="60" as="geometry" />
        </mxCell>
        <mxCell id="KmaNYub6ngAb1CBFJfRz-9" value="" style="edgeStyle=orthogonalEdgeStyle;rounded=0;orthogonalLoop=1;jettySize=auto;html=1;" parent="1" source="KmaNYub6ngAb1CBFJfRz-7" target="KmaNYub6ngAb1CBFJfRz-8" edge="1">
          <mxGeometry relative="1" as="geometry" />
        </mxCell>
        <mxCell id="KmaNYub6ngAb1CBFJfRz-7" value="&lt;div&gt;Infrastructure&lt;/div&gt;" style="rounded=0;whiteSpace=wrap;html=1;" parent="1" vertex="1">
          <mxGeometry x="250" y="190" width="120" height="60" as="geometry" />
        </mxCell>
        <mxCell id="KmaNYub6ngAb1CBFJfRz-13" value="" style="edgeStyle=orthogonalEdgeStyle;rounded=0;orthogonalLoop=1;jettySize=auto;html=1;" parent="1" source="KmaNYub6ngAb1CBFJfRz-8" target="KmaNYub6ngAb1CBFJfRz-10" edge="1">
          <mxGeometry relative="1" as="geometry">
            <Array as="points">
              <mxPoint x="430" y="350" />
            </Array>
          </mxGeometry>
        </mxCell>
        <mxCell id="KmaNYub6ngAb1CBFJfRz-15" value="" style="edgeStyle=orthogonalEdgeStyle;rounded=0;orthogonalLoop=1;jettySize=auto;html=1;" parent="1" source="KmaNYub6ngAb1CBFJfRz-8" target="KmaNYub6ngAb1CBFJfRz-14" edge="1">
          <mxGeometry relative="1" as="geometry">
            <Array as="points">
              <mxPoint x="430" y="350" />
              <mxPoint x="430" y="370" />
            </Array>
          </mxGeometry>
        </mxCell>
        <mxCell id="KmaNYub6ngAb1CBFJfRz-17" value="" style="edgeStyle=orthogonalEdgeStyle;rounded=0;orthogonalLoop=1;jettySize=auto;html=1;" parent="1" source="KmaNYub6ngAb1CBFJfRz-8" target="KmaNYub6ngAb1CBFJfRz-16" edge="1">
          <mxGeometry relative="1" as="geometry" />
        </mxCell>
        <mxCell id="KmaNYub6ngAb1CBFJfRz-8" value="Mise en place du switch" style="rounded=0;whiteSpace=wrap;html=1;" parent="1" vertex="1">
          <mxGeometry x="250" y="320" width="120" height="60" as="geometry" />
        </mxCell>
        <mxCell id="KmaNYub6ngAb1CBFJfRz-10" value="VLAN" style="ellipse;whiteSpace=wrap;html=1;rounded=0;" parent="1" vertex="1">
          <mxGeometry x="534" y="260" width="120" height="60" as="geometry" />
        </mxCell>
        <mxCell id="KmaNYub6ngAb1CBFJfRz-14" value="Routage" style="whiteSpace=wrap;html=1;rounded=0;" parent="1" vertex="1">
          <mxGeometry x="534" y="340" width="120" height="60" as="geometry" />
        </mxCell>
        <mxCell id="KmaNYub6ngAb1CBFJfRz-21" value="" style="edgeStyle=orthogonalEdgeStyle;rounded=0;orthogonalLoop=1;jettySize=auto;html=1;" parent="1" source="KmaNYub6ngAb1CBFJfRz-16" target="KmaNYub6ngAb1CBFJfRz-18" edge="1">
          <mxGeometry relative="1" as="geometry">
            <Array as="points">
              <mxPoint x="400" y="550" />
            </Array>
          </mxGeometry>
        </mxCell>
        <mxCell id="KmaNYub6ngAb1CBFJfRz-23" value="" style="edgeStyle=orthogonalEdgeStyle;rounded=0;orthogonalLoop=1;jettySize=auto;html=1;" parent="1" source="KmaNYub6ngAb1CBFJfRz-16" target="KmaNYub6ngAb1CBFJfRz-22" edge="1">
          <mxGeometry relative="1" as="geometry">
            <Array as="points">
              <mxPoint x="400" y="550" />
              <mxPoint x="400" y="610" />
            </Array>
          </mxGeometry>
        </mxCell>
        <mxCell id="KmaNYub6ngAb1CBFJfRz-16" value="Sécurisation des accès" style="rounded=0;whiteSpace=wrap;html=1;" parent="1" vertex="1">
          <mxGeometry x="250" y="520" width="120" height="60" as="geometry" />
        </mxCell>
        <mxCell id="KmaNYub6ngAb1CBFJfRz-18" value="Filtrage pare-feu" style="ellipse;whiteSpace=wrap;html=1;rounded=0;" parent="1" vertex="1">
          <mxGeometry x="534" y="490" width="120" height="60" as="geometry" />
        </mxCell>
        <mxCell id="KmaNYub6ngAb1CBFJfRz-22" value="Routage avec les pare-feu" style="whiteSpace=wrap;html=1;rounded=0;" parent="1" vertex="1">
          <mxGeometry x="534" y="580" width="120" height="60" as="geometry" />
        </mxCell>
      </root>
    </mxGraphModel>
  </diagram>
</mxfile>
